<svg xmlns:dc="http://purl.org/dc/elements/1.1/" xmlns:cc="http://creativecommons.org/ns#" xmlns:rdf="http://www.w3.org/1999/02/22-rdf-syntax-ns#" xmlns:svg="http://www.w3.org/2000/svg" xmlns="http://www.w3.org/2000/svg" version="1.1" x="0px" y="0px" viewBox="0 0 100 125"><g transform="translate(0,-952.36218)"><path style="text-indent:0;text-transform:none;direction:ltr;block-progression:tb;baseline-shift:baseline;color:#555555;enable-background:accumulate;" d="m 15,972.36217 c -4.3974,0 -8,3.60255 -8,8 l 0,44.00003 c 0,4.3974 3.6026,8 8,8 l 70,0 c 4.3974,0 8,-3.6026 8,-8 l 0,-44.00003 c 0,-4.39745 -3.6026,-8 -8,-8 l -70,0 z m 0,4 70,0 c 0.3385,0 0.6572,0.0501 0.9688,0.125 L 52.875,1009.1122 c -1.6223,1.5993 -4.1933,1.5992 -5.8125,0 L 14.0312,976.48717 c 0.3116,-0.0749 0.6303,-0.125 0.9688,-0.125 z m -3.8438,2.90625 24.4688,24.18748 -24.4062,22.125 C 11.0974,1025.1929 11,1024.7966 11,1024.3622 l 0,-44.00003 c 0,-0.38486 0.06,-0.74445 0.1562,-1.09375 z m 77.6563,0 c 0.098,0.35182 0.1875,0.70574 0.1875,1.09375 l 0,44.00003 c 0,0.4344 -0.097,0.8307 -0.2188,1.2187 L 64.3438,1003.4247 88.8125,979.26842 z M 61.5,1006.2372 l 24.3125,22.0312 c -0.2632,0.052 -0.5312,0.094 -0.8125,0.094 l -70,0 c -0.2813,0 -0.5493,-0.042 -0.8125,-0.094 l 24.2813,-22 5.7812,5.6875 c 3.1556,3.1166 8.2806,3.1123 11.4375,0 l 5.8125,-5.7187 z" fill="#555555" fill-opacity="1" stroke="none" marker="none" visibility="visible" display="inline" overflow="visible"/></g></svg>