<svg class="loadersvg" version="1.1" id="Layer_1" xmlns="http://www.w3.org/2000/svg" xmlns:xlink="http://www.w3.org/1999/xlink" x="0px" y="0px"
	  viewBox="0 0 213.187 90.187" enable-background="new 0 0 213.187 90.187"
	 xml:space="preserve">
<g>
	<path fill="#00A2E5" d="M0.503,6.068C0.503,2.714,3.206,0,6.531,0c3.331,0,6.031,2.714,6.031,6.068s-2.7,6.068-6.031,6.068
		C3.206,12.136,0.503,9.422,0.503,6.068"/>
</g>
<g>
	<path fill="#71C6F0" d="M24.557,6.116c0-3.354,2.7-6.073,6.029-6.073c3.332,0,6.027,2.719,6.027,6.073
		c0,3.348-2.695,6.067-6.027,6.067C27.257,12.183,24.557,9.464,24.557,6.116"/>
</g>
<g>
	<path fill="#71C6F0" d="M24.528,18.207c0-3.354,2.702-6.07,6.026-6.07c3.332,0,6.03,2.716,6.03,6.07
		c0,3.351-2.698,6.069-6.03,6.069C27.23,24.276,24.528,21.558,24.528,18.207"/>
</g>
<g>
	<path fill="#00A2E5" d="M24.549,30.341c-0.003-3.354,2.693-6.072,6.024-6.074c3.328-0.001,6.03,2.712,6.033,6.062
		c0.003,3.354-2.696,6.073-6.023,6.076C27.252,36.409,24.55,33.693,24.549,30.341"/>
</g>
<g>
	<path fill="#00A2E5" d="M12.526,30.31c0-3.353,2.699-6.07,6.03-6.07c3.328,0,6.025,2.717,6.025,6.07
		c0,3.352-2.697,6.071-6.025,6.071C15.226,36.381,12.526,33.662,12.526,30.31"/>
</g>
<g>
	<path fill="#00A2E5" d="M12.546,6.096c0-3.354,2.701-6.067,6.028-6.067c3.326,0,6.029,2.713,6.029,6.067
		c0,3.353-2.703,6.069-6.029,6.069C15.248,12.165,12.546,9.449,12.546,6.096"/>
</g>
<g>
	<path fill="#71C6F0" d="M12.526,18.215c0-3.35,2.699-6.071,6.03-6.071c3.328,0,6.025,2.721,6.025,6.071
		c0,3.352-2.697,6.067-6.025,6.067C15.226,24.282,12.526,21.567,12.526,18.215"/>
</g>
<g>
	<path fill="#71C6F0" d="M0.515,18.215c0-3.35,2.699-6.071,6.03-6.071c3.328,0,6.026,2.721,6.026,6.071
		c0,3.352-2.698,6.067-6.026,6.067C3.214,24.282,0.515,21.567,0.515,18.215"/>
</g>
<g>
	<path fill="#71C6F0" d="M0.515,30.31c0-3.353,2.699-6.07,6.03-6.07c3.328,0,6.026,2.717,6.026,6.07
		c0,3.352-2.698,6.071-6.026,6.071C3.214,36.381,0.515,33.662,0.515,30.31"/>
</g>
<g>
	<path fill="#FFFFFF" d="M107.304,82.367c-0.594,0-1.14,0.121-1.638,0.367c-0.499,0.244-0.95,0.612-1.351,1.104v-4.151h-0.955
		v10.315h0.955v-1.369c0.379,0.521,0.816,0.909,1.308,1.168c0.494,0.255,1.045,0.386,1.653,0.386c1.059,0,1.968-0.381,2.721-1.142
		c0.756-0.763,1.133-1.683,1.133-2.757c0-1.088-0.375-2.014-1.119-2.776C109.261,82.748,108.36,82.367,107.304,82.367
		 M109.758,87.775c-0.267,0.471-0.627,0.838-1.079,1.099c-0.451,0.263-0.947,0.393-1.478,0.393c-0.832,0-1.533-0.288-2.1-0.866
		c-0.569-0.576-0.854-1.293-0.854-2.152c0-0.566,0.127-1.072,0.38-1.521c0.253-0.451,0.617-0.807,1.09-1.074
		c0.472-0.264,0.971-0.397,1.496-0.397c0.515,0,1.001,0.134,1.457,0.397c0.453,0.268,0.813,0.638,1.084,1.117
		c0.269,0.475,0.405,0.979,0.405,1.504C110.159,86.799,110.024,87.3,109.758,87.775 M82.223,82.367c-1.153,0-2.105,0.416-2.86,1.25
		c-0.685,0.757-1.029,1.65-1.029,2.681c0,1.037,0.363,1.946,1.088,2.724c0.723,0.776,1.658,1.166,2.801,1.166
		c1.138,0,2.069-0.39,2.794-1.166c0.726-0.777,1.087-1.687,1.087-2.724c0-1.034-0.343-1.931-1.028-2.687
		C84.321,82.781,83.37,82.367,82.223,82.367 M84.742,87.826c-0.263,0.464-0.615,0.824-1.059,1.078
		c-0.444,0.252-0.932,0.379-1.463,0.379c-0.533,0-1.02-0.127-1.465-0.379c-0.444-0.254-0.796-0.614-1.058-1.078
		c-0.261-0.465-0.391-0.965-0.391-1.506c0-0.834,0.286-1.543,0.859-2.133c0.572-0.588,1.256-0.884,2.055-0.884
		c0.792,0,1.476,0.296,2.05,0.884c0.576,0.59,0.863,1.299,0.863,2.133C85.133,86.861,85.002,87.361,84.742,87.826 M22.652,54.007
		c0.309-0.77,0.463-1.629,0.463-2.58c0-1.539-0.375-2.875-1.126-4.004c-0.75-1.128-1.695-2.002-2.833-2.617
		c-1.157-0.643-2.39-1.047-3.701-1.215c-1.31-0.165-2.814-0.249-4.51-0.249H9.211h-2.14H4.778c-0.771,0-1.484,0.009-2.138,0.02
		c-0.656,0.015-1.227,0.022-1.715,0.022H0v0.385c0.693,0.102,1.342,0.226,1.946,0.367c0.603,0.142,1.097,0.419,1.483,0.829
		c0.154,0.155,0.276,0.404,0.366,0.754c0.09,0.346,0.155,0.729,0.192,1.153c0.039,0.426,0.064,0.876,0.078,1.351
		c0.013,0.476,0.019,0.945,0.019,1.405v7.521v2.235c0,0.771-0.006,1.522-0.021,2.255c-0.015,0.733-0.028,1.407-0.042,2.023
		c-0.015,0.617-0.022,1.107-0.022,1.466c0,0.409-0.014,0.835-0.039,1.272c-0.025,0.437-0.057,0.849-0.096,1.231
		c-0.039,0.388-0.096,0.735-0.174,1.043c-0.076,0.308-0.179,0.538-0.308,0.692c-0.334,0.41-0.796,0.722-1.386,0.925
		c-0.592,0.209-1.208,0.362-1.85,0.465v0.386h12.357v-0.386c-1.054-0.054-1.875-0.243-2.466-0.578
		c-0.591-0.333-0.989-0.666-1.194-1.001c-0.257-0.386-0.399-0.873-0.425-1.464c-0.024-0.591-0.051-1.296-0.076-2.117
		c0-0.438-0.007-0.84-0.022-1.213c-0.014-0.372-0.021-0.776-0.021-1.212v-1.504V60.23V58.25v-0.938v-3.24
		c0-1.23,0.007-2.489,0.021-3.775c0.015-1.281,0.035-2.374,0.064-3.271c0.026-0.592,0.051-1.047,0.077-1.369
		c0.025-0.321,0.052-0.572,0.078-0.752c0.025-0.178,0.057-0.329,0.095-0.442c0.039-0.117,0.072-0.251,0.096-0.406
		C8.911,44.031,9.148,44,9.443,43.96c0.297-0.038,0.714-0.057,1.254-0.057c0.744,0,1.464,0.05,2.158,0.155
		c0.693,0.1,1.349,0.296,1.965,0.576c1.233,0.591,2.227,1.464,2.986,2.62c0.757,1.155,1.136,2.479,1.136,3.97
		c0,1.617-0.436,3.074-1.311,4.371c-0.874,1.299-2.133,2.229-3.778,2.795c-0.797,0.283-1.659,0.457-2.584,0.521
		c-0.389,0.025-0.789,0.046-1.199,0.064L9.386,58.93l-0.068,0.411c0,0,0.477,0.143,0.615,0.137c0.125-0.007,0.32,0.074,0.45,0.074
		c0.797,0,1.613-0.031,2.45-0.096c0.835-0.062,1.665-0.159,2.489-0.287c0.823-0.131,1.594-0.322,2.315-0.58
		c0.694-0.256,1.376-0.598,2.045-1.02c0.668-0.422,1.253-0.93,1.754-1.521C21.938,55.458,22.343,54.779,22.652,54.007 M86.86,67.839
		c-0.287,0.232-0.646,0.498-1.08,0.766c-0.536,0.33-1.231,0.547-1.845,0.689h-9.382c-0.125-0.314-0.201-0.76-0.231-1.332
		c-0.038-0.758-0.071-1.549-0.096-2.37c-0.028-0.849-0.042-3.142-0.042-4.633v-3.894h4.439c0.542,0.088,1.252,0.299,1.9,0.795
		c1.267,0.969,1.427,1.428,1.427,1.428l-0.007-0.029c0.046,0.1,0.094,0.188,0.139,0.293c0.385,0.889,0.681,1.742,0.886,2.564h0.463
		V49.972h-0.463c-0.154,0.719-0.322,1.367-0.501,1.947c-0.18,0.578-0.424,1.087-0.732,1.523c-0.308,0.437-0.713,0.81-1.213,1.117
		c-0.502,0.307-1.137,0.553-1.907,0.731c-0.36,0.077-0.764,0.142-1.214,0.194c-0.449,0.049-0.88,0.084-1.291,0.097
		c-0.412,0.013-0.797,0.019-1.156,0.019h-0.77V44.954h7.52c0.46,0.054,2.103,0.282,3.142,0.922c0.32,0.197,0.599,0.395,0.84,0.576
		c0.076,0.082,0.155,0.16,0.23,0.246c0.757,0.875,1.65,1.967,2.678,3.277l0.385-0.193l-1.888-6.398H71.215
		c-1.345,0.09-2.241,1.592-2.241,1.592c-0.936,1.394-1.991,2.956-3.162,4.692c-1.285,1.901-2.582,3.823-3.892,5.765
		c-1.311,1.939-2.556,3.784-3.737,5.533c-1.182,1.746-2.183,3.212-3.006,4.396c-0.924,1.308-1.689,2.297-2.292,2.963
		c-0.604,0.67-1.008,1.097-1.213,1.277c-0.021,0.014-0.067,0.049-0.094,0.069c-0.061-0.038-0.126-0.069-0.185-0.11
		c-0.899-0.617-1.824-1.594-2.773-2.932c-0.618-0.873-1.318-1.876-2.102-3.007c-0.783-1.132-1.509-2.185-2.177-3.162
		c-0.384-0.54-0.782-1.028-1.193-1.466c-0.412-0.436-0.835-0.77-1.271-1.002v-0.114c0.848-0.283,1.659-0.634,2.431-1.041
		c0.772-0.412,1.447-0.906,2.026-1.483c0.579-0.58,1.043-1.248,1.389-2.007c0.348-0.761,0.522-1.612,0.522-2.563
		c0-1.543-0.348-2.823-1.041-3.836c-0.695-1.015-1.607-1.82-2.738-2.414c-1.106-0.59-2.327-0.935-3.664-1.038
		c-1.337-0.102-2.866-0.155-4.589-0.155h-2.699c-1.108,0-2.215,0.009-3.321,0.02c-1.108,0.015-2.098,0.022-2.971,0.022h-1.579v0.385
		c0.692,0.102,1.277,0.226,1.752,0.367c0.476,0.142,0.906,0.419,1.291,0.829c0.154,0.155,0.275,0.404,0.367,0.754
		c0.089,0.346,0.154,0.729,0.192,1.153c0.039,0.426,0.064,0.876,0.078,1.351c0.012,0.476,0.018,0.945,0.018,1.405v7.521v2.235
		c0,0.771-0.007,1.522-0.021,2.255c-0.014,0.733-0.029,1.407-0.042,2.023c-0.015,0.617-0.021,1.107-0.021,1.466
		c0,0.409-0.014,0.835-0.039,1.272c-0.026,0.437-0.058,0.849-0.096,1.231c-0.039,0.388-0.097,0.735-0.174,1.043
		c-0.078,0.308-0.18,0.538-0.308,0.692c-0.334,0.41-0.797,0.722-1.387,0.925c-0.591,0.209-1.208,0.362-1.849,0.465v0.386H37.76
		v-0.386c-1.053-0.054-1.876-0.252-2.466-0.597c-0.59-0.348-0.989-0.689-1.193-1.022c-0.258-0.385-0.4-0.872-0.425-1.464
		c-0.026-0.591-0.052-1.296-0.077-2.119c-0.029-0.848-0.042-1.887-0.042-3.119v-3.574v-1.842v-0.906v-2.773
		c0-1.053,0.006-2.145,0.021-3.273c0.013-1.129,0.035-2.146,0.064-3.043c0.023-0.592,0.041-1.047,0.053-1.369
		c0.012-0.321,0.023-0.572,0.034-0.752c0.013-0.178,0.03-0.329,0.054-0.442c0.024-0.117,0.047-0.251,0.071-0.406
		c0.18-0.025,0.438-0.052,0.773-0.077c0.334-0.026,0.771-0.038,1.313-0.038c0.746,0,1.46,0.063,2.142,0.193
		c0.683,0.127,1.332,0.333,1.951,0.615c1.236,0.591,2.174,1.389,2.819,2.39c0.642,1.001,0.965,2.144,0.965,3.431
		c0,0.692-0.09,1.36-0.27,2.002c-0.18,0.642-0.457,1.24-0.83,1.791c-0.372,0.554-0.855,1.047-1.446,1.483
		c-0.592,0.437-1.299,0.785-2.122,1.041c-0.848,0.284-1.73,0.47-2.643,0.558c-0.554,0.056-1.137,0.092-1.744,0.115l-0.409,0.008
		v0.545l0.406,0.026c0.219,0.022,0.485,0.069,0.801,0.136c0.667,0.129,1.302,0.451,1.905,0.963c0.605,0.514,1.163,1.064,1.677,1.656
		c0.615,0.721,1.149,1.368,1.599,1.946c0.448,0.578,0.865,1.149,1.251,1.715c0.384,0.565,0.764,1.136,1.136,1.714
		c0.372,0.577,0.767,1.252,1.291,1.944c1.82,2.416,4.246,2.744,4.825,2.838c0.578,0.095,1.125,0.093,1.125,0.093h4.183h3.169v-0.386
		c-0.334-0.054-0.668-0.108-1.002-0.174c-0.333-0.065-0.636-0.168-0.905-0.308c-0.27-0.143-0.496-0.324-0.674-0.541
		c-0.135-0.666-0.129-0.967-0.06-1.227l4.807-7.122h10.115c-0.004,0.539-0.004,1.078-0.012,1.618
		c-0.014,0.977-0.036,1.684-0.064,2.122c0,0.409-0.007,0.842-0.019,1.292c-0.013,0.447-0.033,0.879-0.057,1.292
		c-0.027,0.412-0.072,0.771-0.136,1.08c-0.065,0.308-0.161,0.54-0.289,0.694c-0.385,0.461-0.817,0.766-1.291,0.906
		c-0.475,0.139-1.033,0.264-1.676,0.366v0.386h22.217l1.54-7.674l-0.423-0.115C88.875,65.258,87.895,66.736,86.86,67.839
		 M61.291,59.307L70.004,46.4l0.008,12.907H61.291z M31.474,82.756c-0.392-0.261-0.844-0.39-1.356-0.39
		c-0.548,0-1.06,0.15-1.535,0.453c-0.476,0.304-0.872,0.75-1.189,1.334c-0.15-0.438-0.329-0.775-0.535-1.012
		c-0.205-0.234-0.47-0.422-0.793-0.564c-0.324-0.139-0.667-0.211-1.029-0.211c-0.533,0-1.041,0.145-1.525,0.432
		c-0.352,0.217-0.694,0.564-1.028,1.04v-1.289H21.53v7.453h0.954v-3.149c0-0.93,0.093-1.621,0.278-2.074
		c0.185-0.451,0.469-0.81,0.854-1.074c0.387-0.266,0.8-0.401,1.243-0.401c0.384,0,0.714,0.099,0.992,0.291
		c0.279,0.194,0.473,0.451,0.585,0.772c0.112,0.322,0.167,0.93,0.167,1.828v3.808h0.955v-2.911c0-1.064,0.089-1.828,0.266-2.284
		c0.178-0.454,0.459-0.819,0.842-1.092c0.385-0.274,0.809-0.412,1.273-0.412c0.382,0,0.709,0.095,0.985,0.274
		c0.275,0.183,0.47,0.424,0.583,0.721c0.114,0.3,0.171,0.848,0.171,1.645v4.06h0.954v-4.063c0-0.931-0.095-1.629-0.284-2.094
		C32.157,83.38,31.866,83.019,31.474,82.756 M3.164,90.002h0.954v-7.453H3.164V90.002z M60.052,82.756
		c-0.392-0.261-0.843-0.39-1.356-0.39c-0.547,0-1.06,0.15-1.536,0.453c-0.475,0.304-0.872,0.75-1.188,1.334
		c-0.151-0.438-0.329-0.775-0.534-1.012c-0.206-0.234-0.471-0.422-0.795-0.564c-0.324-0.139-0.666-0.211-1.026-0.211
		c-0.535,0-1.044,0.145-1.527,0.432c-0.352,0.217-0.694,0.564-1.027,1.04v-1.289h-0.955v7.453h0.955v-3.149
		c0-0.93,0.092-1.621,0.276-2.074c0.185-0.451,0.47-0.81,0.857-1.074c0.385-0.266,0.798-0.401,1.241-0.401
		c0.382,0,0.713,0.099,0.992,0.291c0.278,0.194,0.474,0.451,0.585,0.772c0.112,0.322,0.168,0.93,0.168,1.828v3.808h0.955v-2.911
		c0-1.064,0.088-1.828,0.265-2.284c0.178-0.454,0.458-0.819,0.842-1.092c0.384-0.274,0.809-0.412,1.273-0.412
		c0.382,0,0.711,0.095,0.986,0.274c0.273,0.183,0.469,0.424,0.582,0.721c0.114,0.3,0.172,0.848,0.172,1.645v4.06h0.954v-4.063
		c0-0.931-0.095-1.629-0.286-2.094C60.735,83.38,60.444,83.019,60.052,82.756 M3.638,79.502c-0.211,0-0.394,0.077-0.546,0.233
		c-0.154,0.152-0.23,0.34-0.23,0.559c0,0.214,0.076,0.398,0.23,0.551C3.244,81,3.427,81.078,3.638,81.078
		c0.215,0,0.4-0.077,0.552-0.232c0.153-0.152,0.229-0.337,0.229-0.551c0-0.219-0.076-0.406-0.229-0.559
		C4.038,79.58,3.853,79.502,3.638,79.502 M166.306,43.77c1.233,0.18,2.164,0.497,2.793,0.945c0.629,0.45,1.073,1.034,1.332,1.755
		c0.099,0.255,0.176,0.597,0.229,1.021c0.05,0.424,0.09,0.881,0.114,1.369c0.027,0.489,0.043,1.002,0.057,1.543
		s0.021,1.065,0.021,1.578v1.582v1.504v1.58v1.889c0,0.873-0.035,1.766-0.097,2.679c-0.065,0.913-0.194,1.806-0.385,2.679
		c-0.192,0.875-0.49,1.697-0.89,2.469c-0.396,0.771-0.935,1.451-1.615,2.041c-0.682,0.59-1.528,1.053-2.542,1.389
		c-1.017,0.333-2.259,0.501-3.72,0.501c-1.287,0-2.428-0.212-3.43-0.636c-1.001-0.422-1.852-1.027-2.542-1.812
		c-0.696-0.781-1.237-1.734-1.62-2.854c-0.387-1.117-0.592-2.356-0.617-3.717c0-0.619-0.008-1.203-0.021-1.756
		c-0.015-0.551-0.022-1.125-0.022-1.715v-1.967v-2.352v-1.812v-1.543c0-0.485,0.008-0.987,0.022-1.504
		c0.013-0.513,0.035-1.103,0.062-1.771c0.026-0.592,0.156-1.079,0.387-1.465c0.23-0.388,0.515-0.689,0.849-0.906
		c0.332-0.218,0.705-0.379,1.115-0.482c0.412-0.105,0.796-0.181,1.155-0.233v-0.385h-11.504v0.385
		c0.67,0.078,1.265,0.212,1.791,0.406c0.529,0.193,0.972,0.507,1.332,0.945c0.151,0.178,0.27,0.429,0.345,0.751
		c0.079,0.322,0.137,0.681,0.176,1.08c0.037,0.397,0.058,0.828,0.058,1.291v1.387v5.129c0,1.413-0.007,2.697-0.022,3.855
		c-0.015,1.156-0.022,2.094-0.022,2.812c0,0.312,0.021,0.778,0.059,1.41c0.039,0.63,0.166,1.323,0.386,2.081
		c0.219,0.758,0.556,1.529,1.005,2.314c0.452,0.78,1.089,1.504,1.911,2.156c0.824,0.655,1.875,1.178,3.147,1.562
		c1.276,0.385,2.84,0.578,4.695,0.578c1.879,0,3.463-0.199,4.749-0.597c1.288-0.399,2.345-0.938,3.169-1.62
		c0.823-0.682,1.461-1.439,1.911-2.275c0.451-0.836,0.779-1.67,0.983-2.506c0.205-0.834,0.33-1.625,0.369-2.371
		c0.039-0.744,0.069-1.361,0.097-1.85c0.047-1.721,0.088-3.262,0.124-4.625c0.035-1.361,0.066-2.597,0.088-3.699
		c0-0.592,0.014-1.19,0.038-1.795c0.026-0.604,0.065-1.176,0.114-1.716c0.053-0.538,0.109-1.014,0.177-1.427
		c0.063-0.41,0.134-0.705,0.209-0.888c0.312-0.743,0.739-1.296,1.29-1.656c0.553-0.36,1.307-0.605,2.255-0.733v-0.385h-9.565V43.77z
		 M165.086,79.502c-0.209,0-0.394,0.077-0.543,0.233c-0.155,0.152-0.231,0.34-0.231,0.559c0,0.214,0.076,0.398,0.231,0.551
		c0.149,0.155,0.334,0.232,0.543,0.232c0.22,0,0.402-0.077,0.554-0.232c0.154-0.152,0.229-0.337,0.229-0.551
		c0-0.219-0.075-0.406-0.229-0.559C165.488,79.58,165.306,79.502,165.086,79.502 M189.506,83.803
		c-0.758-0.958-1.776-1.437-3.048-1.437c-1.234,0-2.223,0.468-2.96,1.41c-0.579,0.737-0.87,1.578-0.87,2.521
		c0,1.003,0.344,1.901,1.03,2.696c0.687,0.796,1.637,1.193,2.856,1.193c0.547,0,1.037-0.084,1.471-0.25
		c0.437-0.168,0.828-0.414,1.175-0.736c0.348-0.322,0.655-0.744,0.92-1.269l-0.81-0.425c-0.293,0.488-0.564,0.844-0.817,1.062
		c-0.254,0.222-0.558,0.399-0.919,0.531c-0.36,0.131-0.73,0.198-1.113,0.198c-0.788,0-1.451-0.276-1.988-0.831
		s-0.815-1.268-0.832-2.134h6.73C190.322,85.322,190.047,84.478,189.506,83.803 M183.694,85.515
		c0.199-0.679,0.492-1.191,0.875-1.527c0.529-0.467,1.16-0.701,1.896-0.701c0.445,0,0.871,0.094,1.274,0.279
		c0.404,0.186,0.73,0.428,0.976,0.732c0.247,0.305,0.431,0.71,0.562,1.217H183.694z M211.569,70.469
		c-0.461-0.168-0.846-0.36-1.155-0.58c-0.31-0.218-0.545-0.423-0.713-0.616c-0.167-0.193-0.265-0.313-0.289-0.367
		c-0.154-0.281-0.265-0.672-0.326-1.174c-0.065-0.502-0.096-0.996-0.096-1.484c-0.029-1.516-0.043-2.957-0.043-4.318v-4.165v-3.508
		c0-1.158,0.014-2.353,0.043-3.585c0.024-0.9,0.063-1.811,0.114-2.736c0.053-0.926,0.153-1.607,0.308-2.043
		c0.205-0.568,0.585-1.054,1.135-1.466c0.554-0.411,1.357-0.629,2.411-0.656v-0.385h-8.22c-0.075,0.207-0.39,0.959-0.941,2.257
		c-0.554,1.297-1.262,2.924-2.12,4.875c-0.863,1.953-1.83,4.137-2.91,6.553c-1.08,2.418-2.183,4.847-3.313,7.289l-9.209-20.975
		h-8.205v0.385c0.306,0.052,0.679,0.136,1.116,0.252c0.438,0.115,0.849,0.303,1.234,0.558c0.383,0.258,0.719,0.612,1,1.062
		c0.282,0.448,0.436,1.033,0.463,1.752c0.024,0.746,0.041,1.377,0.041,1.889v1.504v1.466v1.89c0,1.723-0.017,3.336-0.041,4.84
		c-0.027,1.504-0.065,2.805-0.115,3.912c-0.025,1.309-0.115,2.422-0.271,3.336c-0.153,0.912-0.397,1.674-0.731,2.293
		c-0.334,0.616-0.782,1.098-1.348,1.443c-0.565,0.35-1.298,0.611-2.197,0.792v0.386h10.056v-0.386
		c-1.103-0.155-1.97-0.405-2.601-0.752c-0.629-0.349-1.099-0.823-1.405-1.427c-0.31-0.604-0.502-1.35-0.578-2.236
		c-0.079-0.889-0.117-1.936-0.117-3.143v-4.934c0-1.414,0.007-2.756,0.021-4.029c0.014-1.271,0.026-2.557,0.037-3.855
		c0.015-1.298,0.021-2.795,0.021-4.491c0.128,0.282,0.366,0.822,0.714,1.618c0.346,0.798,0.788,1.788,1.327,2.971
		c0.541,1.182,1.146,2.53,1.813,4.047c0.668,1.516,1.387,3.141,2.158,4.877c0.769,1.734,1.557,3.541,2.368,5.416
		c0.808,1.877,1.623,3.767,2.447,5.668h0.231c0.049-0.152,0.178-0.469,0.385-0.944c0.205-0.476,0.423-1.003,0.654-1.581
		s0.463-1.143,0.694-1.695c0.229-0.552,0.41-0.957,0.54-1.216c0.846-1.901,1.623-3.642,2.329-5.224
		c0.707-1.58,1.405-3.127,2.103-4.646c0.69-1.516,1.389-3.071,2.098-4.665c0.707-1.592,1.482-3.341,2.332-5.244v10.91v4.783
		c0,1.541-0.028,3.16-0.088,4.855c-0.024,0.516-0.075,1.022-0.152,1.525c-0.077,0.5-0.191,0.917-0.346,1.252
		c-0.256,0.54-0.758,1.016-1.504,1.426s-1.67,0.644-2.774,0.693v0.426h13.233v-0.386C212.572,70.734,212.032,70.634,211.569,70.469
		 M209.056,82.68c-0.33,0.21-0.64,0.53-0.935,0.959v-1.09h-0.955v7.453h0.955v-2.515c0-1.291,0.062-2.146,0.181-2.569
		c0.156-0.554,0.385-0.959,0.684-1.22c0.302-0.262,0.615-0.396,0.938-0.396c0.138,0,0.306,0.045,0.511,0.13l0.5-0.814
		c-0.304-0.168-0.59-0.252-0.856-0.252C209.724,82.367,209.382,82.471,209.056,82.68 M164.613,90.002h0.954v-7.453h-0.954V90.002z
		 M128.149,90.002h0.953v-7.453h-0.953V90.002z M128.623,79.502c-0.211,0-0.396,0.077-0.547,0.233
		c-0.152,0.152-0.228,0.34-0.228,0.559c0,0.214,0.075,0.398,0.228,0.551c0.151,0.155,0.336,0.232,0.547,0.232
		c0.215,0,0.399-0.077,0.554-0.232c0.151-0.152,0.229-0.337,0.229-0.551c0-0.219-0.078-0.406-0.229-0.559
		C129.022,79.58,128.838,79.502,128.623,79.502 M146.382,90.002h0.954V79.687h-0.954V90.002z M138.916,69.332
		c-0.208-0.282-0.321-0.77-0.347-1.467c-0.026-0.691-0.039-1.412-0.039-2.157v-8.714v-2.196v-2.007c0-0.641,0.006-1.277,0.021-1.907
		c0.014-0.631,0.021-1.265,0.021-1.907c0.026-0.591,0.043-1.222,0.057-1.89c0.013-0.668,0.136-1.223,0.368-1.658
		c0.333-0.618,0.809-1.026,1.424-1.235c0.616-0.204,1.194-0.346,1.733-0.424v-0.385h-11.537v0.385
		c0.668,0.078,1.264,0.212,1.792,0.406c0.525,0.193,0.968,0.507,1.326,0.945c0.156,0.18,0.271,0.429,0.349,0.751
		c0.076,0.322,0.136,0.683,0.172,1.08c0.04,0.397,0.058,0.828,0.058,1.291v1.387v7.521v2.235c0,0.771-0.006,1.522-0.02,2.255
		c-0.015,0.733-0.029,1.407-0.042,2.023c-0.019,0.617-0.022,1.107-0.022,1.466c0,0.409-0.006,0.827-0.02,1.254
		c-0.013,0.423-0.038,0.827-0.074,1.213c-0.041,0.386-0.093,0.72-0.156,1.003c-0.065,0.282-0.162,0.5-0.289,0.655
		c-0.385,0.437-0.854,0.771-1.407,1.003c-0.554,0.23-1.149,0.398-1.793,0.501v0.386h11.698v-0.386
		c-0.539-0.054-1.142-0.192-1.81-0.423C139.711,70.103,139.224,69.767,138.916,69.332 M119.124,60.966
		c0,1.541-0.027,3.16-0.083,4.855c-0.026,0.516-0.078,1.022-0.155,1.525c-0.078,0.5-0.193,0.917-0.348,1.252
		c-0.256,0.54-0.756,1.016-1.502,1.426c-0.745,0.41-1.669,0.644-2.773,0.693v0.426h13.233v-0.386
		c-0.615-0.024-1.156-0.124-1.616-0.289c-0.465-0.168-0.851-0.36-1.156-0.58c-0.31-0.218-0.545-0.423-0.713-0.616
		c-0.166-0.193-0.263-0.313-0.289-0.367c-0.154-0.281-0.263-0.672-0.326-1.174c-0.066-0.502-0.098-0.996-0.098-1.484
		c-0.029-1.516-0.044-2.957-0.044-4.318v-4.165v-3.508c0-1.158,0.015-2.353,0.044-3.585c0.024-0.9,0.065-1.811,0.115-2.736
		s0.154-1.607,0.309-2.043c0.205-0.568,0.584-1.054,1.135-1.466c0.554-0.411,1.356-0.629,2.41-0.656v-0.385h-8.218
		c-0.077,0.207-0.394,0.959-0.946,2.257c-0.551,1.297-1.256,2.924-2.119,4.875c-0.859,1.953-1.828,4.137-2.906,6.553
		c-1.081,2.418-2.184,4.847-3.314,7.289l-9.208-20.975h-8.208v0.385c0.308,0.052,0.681,0.136,1.118,0.252
		c0.436,0.115,0.847,0.303,1.233,0.558c0.385,0.258,0.719,0.612,1.002,1.062c0.281,0.448,0.436,1.033,0.462,1.752
		c0.025,0.746,0.038,1.377,0.038,1.889v1.504v1.466v1.89c0,1.723-0.013,3.336-0.038,4.84c-0.026,1.504-0.064,2.805-0.116,3.912
		c-0.025,1.309-0.115,2.422-0.27,3.336c-0.154,0.912-0.398,1.674-0.731,2.293c-0.334,0.616-0.784,1.098-1.349,1.443
		c-0.566,0.35-1.298,0.611-2.196,0.792v0.386h10.056v-0.386c-1.104-0.155-1.972-0.405-2.601-0.752
		c-0.629-0.349-1.099-0.823-1.406-1.427c-0.309-0.604-0.501-1.35-0.578-2.236c-0.077-0.889-0.116-1.936-0.116-3.143v-4.934
		c0-1.414,0.007-2.756,0.02-4.029c0.013-1.271,0.026-2.557,0.038-3.855c0.013-1.298,0.02-2.795,0.02-4.491
		c0.128,0.282,0.365,0.822,0.712,1.618c0.347,0.798,0.79,1.788,1.329,2.971c0.54,1.182,1.144,2.53,1.812,4.047
		c0.667,1.516,1.386,3.141,2.157,4.877c0.771,1.734,1.561,3.541,2.369,5.416c0.81,1.877,1.625,3.767,2.446,5.668h0.233
		c0.052-0.152,0.18-0.469,0.385-0.944c0.206-0.476,0.423-1.003,0.656-1.581c0.229-0.578,0.46-1.143,0.692-1.695
		c0.23-0.552,0.41-0.957,0.539-1.216c0.848-1.901,1.625-3.642,2.332-5.224c0.707-1.58,1.405-3.127,2.098-4.646
		c0.695-1.516,1.396-3.071,2.101-4.665c0.706-1.592,1.485-3.341,2.331-5.244v10.91V60.966z"/>
</g>
</svg>
